<svg width="96" height="96" viewBox="0 0 96 96" fill="none" xmlns="http://www.w3.org/2000/svg">
  <defs>
    <linearGradient id="g" x1="14" y1="12" x2="82" y2="84" gradientUnits="userSpaceOnUse">
      <stop stop-color="#55EADB"/><stop offset="1" stop-color="#C68CFF"/>
    </linearGradient>
    <filter id="s" x="-20" y="-20" width="136" height="136"><feGaussianBlur stdDeviation="5"/></filter>
  </defs>
  <rect x="3" y="3" width="90" height="90" rx="27" fill="#0C1328" stroke="url(#g)" stroke-width="2"/>
  <path d="M24 30.5C32 27 39.2 28.2 47.5 34.6V70.8C39.2 64.5 32 63.2 24 66.8V30.5Z" fill="url(#g)" fill-opacity=".92"/>
  <path d="M72 30.5C64 27 56.8 28.2 48.5 34.6V70.8C56.8 64.5 64 63.2 72 66.8V30.5Z" fill="#F7F9FF" fill-opacity=".92"/>
  <path d="M31 38.5C35.8 37.5 39.7 38.4 43.4 40.7M31 46C35.8 45 39.7 45.9 43.4 48.2M55 40.7C59.2 38.3 63 37.6 67 38.5M55 48.2C59.2 45.8 63 45.1 67 46" stroke="#091225" stroke-width="2.2" stroke-linecap="round" opacity=".52"/>
  <path d="M63 19L65.5 25.5L72 28L65.5 30.5L63 37L60.5 30.5L54 28L60.5 25.5L63 19Z" fill="#FFD67B"/>
  <path d="M63 19L65.5 25.5L72 28L65.5 30.5L63 37L60.5 30.5L54 28L60.5 25.5L63 19Z" fill="#FFD67B" opacity=".35" filter="url(#s)"/>
</svg>
